PathFileType	4	(X/Y/Z)	G:\マイドライブ\biomec\experimentalData\240725\SJ1.trc
DataRate	CameraRate	NumFrames	NumMarkers	Units	OrigDataRate	OrigDataStartFrame	OrigNumFrames
200.00	200.00	      4	52	mm	200.00	1433	      2292
Frame#	Time	handR			wrRI			wrRO			elbRI			elbRO			shRF			shRU			shRB			handL			wrLI			wrLO			elbLI			elbLO			shLF			shLU			shLB			toeR			baRI			baRO			heelR			anRI			anRO			knRI			knRO			troR			toeL			baLI			baLO			heelL			anLI			anLO			knLI			knLO			troL			head			earR			earL			clav			c7			ribR			ribL			xiph			ASISR			ASISL			PSISR			PSISL			t8			t11			L1			L3			LS			COX			
		X1	Y1	Z1	X2	Y2	Z2	X3	Y3	Z3	X4	Y4	Z4	X5	Y5	Z5	X6	Y6	Z6	X7	Y7	Z7	X8	Y8	Z8	X9	Y9	Z9	X10	Y10	Z10	X11	Y11	Z11	X12	Y12	Z12	X13	Y13	Z13	X14	Y14	Z14	X15	Y15	Z15	X16	Y16	Z16	X17	Y17	Z17	X18	Y18	Z18	X19	Y19	Z19	X20	Y20	Z20	X21	Y21	Z21	X22	Y22	Z22	X23	Y23	Z23	X24	Y24	Z24	X25	Y25	Z25	X26	Y26	Z26	X27	Y27	Z27	X28	Y28	Z28	X29	Y29	Z29	X30	Y30	Z30	X31	Y31	Z31	X32	Y32	Z32	X33	Y33	Z33	X34	Y34	Z34	X35	Y35	Z35	X36	Y36	Z36	X37	Y37	Z37	X38	Y38	Z38	X39	Y39	Z39	X40	Y40	Z40	X41	Y41	Z41	X42	Y42	Z42	X43	Y43	Z43	X44	Y44	Z44	X45	Y45	Z45	X46	Y46	Z46	X47	Y47	Z47	X48	Y48	Z48	X49	Y49	Z49	X50	Y50	Z50	X51	Y51	Z51	X52	Y52	Z52	

1433	7.160	715.05682	772.95300	1040.96338	682.01428	709.64526	1010.93713	633.64813	750.08508	1045.97144	529.42682	606.25269	1177.39258	593.43201	558.12451	1188.29492	708.96625	750.65802	1406.13513	601.68835	725.50385	1402.23706	655.62750	719.97467	1436.34436	724.28247	1060.09375	1050.27063	687.52802	1127.28943	1018.10046	644.29205	1080.36267	1061.29846	554.83344	1239.11780	1182.36963	624.75494	1285.01050	1188.71521	715.21997	1073.99951	1404.20471	664.54004	1109.51465	1433.25342	602.37628	1095.55969	1389.01685	826.43817	732.31622	51.11760	749.14594	788.57904	35.60764	714.25616	668.38617	43.26672	542.07336	773.95105	40.26456	633.07251	802.64502	111.43118	603.12238	712.61365	103.15996	639.55847	832.41315	471.42224	642.89349	728.06610	480.49707	666.41351	743.76324	878.65814	798.36273	1083.33118	50.16214	730.48407	1027.71643	52.00481	695.67755	1139.08813	45.97950	512.88660	1060.00952	38.50060	607.49738	1021.67566	126.96798	577.18597	1107.48584	106.46110	620.29462	998.64838	476.60516	621.84686	1102.23010	487.36090	664.17322	1087.17786	868.72711	694.50189	917.54688	1716.55835	750.37946	833.52533	1557.18970	753.02930	993.34821	1553.82629	737.83215	915.26428	1393.07947	620.99487	920.37427	1476.88342	716.56171	811.07043	1096.01233	722.18726	1025.97156	1092.78259	768.27277	915.99384	1236.80054	734.91992	811.40515	962.28156	731.42987	1031.01697	972.95313	563.20148	860.74158	1001.52875	564.54364	981.63129	1005.45178	551.94537	923.41553	1263.85022	564.21515	925.12872	1139.23743	570.62659	926.79681	1080.95740	566.84778	922.05475	1034.30518	553.04236	922.09662	995.64252	525.05426	920.36182	890.81494	
1434	7.165	714.95642	772.79352	1040.86499	681.88995	709.52136	1010.85931	633.48682	749.93542	1045.87244	529.37634	606.14716	1177.24475	593.33484	558.00726	1188.21704	708.71729	750.55103	1406.12146	601.47314	725.40308	1402.14966	655.34955	719.85071	1436.28503	724.17084	1059.95532	1050.20251	687.39166	1127.14148	1017.99512	644.17047	1080.25244	1061.21997	554.73212	1238.97900	1182.21936	624.63586	1284.91089	1188.58936	715.08704	1073.93140	1404.15674	664.32697	1109.41541	1433.14392	602.20087	1095.51111	1388.94238	826.43140	732.33746	51.13851	749.14813	788.56897	35.59474	714.25562	668.38879	43.27272	542.07263	773.95782	40.24455	633.02332	802.61237	111.42184	603.06616	712.58929	103.12204	639.22113	832.26740	471.36050	642.44733	727.96289	480.41626	666.29755	743.66833	878.58478	798.35522	1083.34998	50.14665	730.48969	1027.70691	52.02017	695.69220	1139.06995	45.98422	512.88007	1060.01416	38.50855	607.45636	1021.67798	126.93532	577.17285	1107.47058	106.48418	620.00922	998.61987	476.53488	621.66034	1102.19360	487.30341	664.14191	1087.09082	868.62616	693.97528	917.56219	1716.46765	750.15430	833.49622	1557.18445	752.75012	993.35785	1553.86194	737.61157	915.11584	1393.02698	620.71399	920.28534	1476.81982	716.47473	810.91187	1095.93762	722.08868	1025.92175	1092.72095	768.12018	915.84033	1236.77991	734.81702	811.31067	962.21844	731.34778	1030.88110	972.90735	563.08319	860.63214	1001.40839	564.45898	981.53284	1005.30603	551.79346	923.30518	1263.70947	564.06567	925.00476	1139.16504	570.49298	926.71582	1080.84009	566.73773	921.95197	1034.20898	552.94702	921.97382	995.53223	525.04291	920.27716	890.68396	
1435	7.170	714.86786	772.68066	1040.79260	681.75574	709.42932	1010.76489	633.31128	749.75659	1045.77625	530.11121	606.16003	1177.27075	593.23492	557.86182	1188.11584	708.45355	750.41815	1406.09448	601.25366	725.31940	1402.06067	655.09662	719.72968	1436.20557	724.02466	1059.81677	1050.18445	687.24591	1126.94714	1017.89313	644.05048	1080.13977	1061.14636	554.60071	1238.86841	1182.10754	624.50360	1284.83911	1188.46460	714.95154	1073.87073	1404.06763	664.12640	1109.33582	1433.04529	602.02710	1095.45190	1388.84619	826.39703	732.32184	51.17228	749.11676	788.58154	35.64889	714.25403	668.38257	43.27523	542.06915	773.97443	40.21665	632.99323	802.57617	111.42104	603.05121	712.56561	103.06499	638.75165	832.13312	471.36008	641.92908	727.85693	480.39795	666.16992	743.53107	878.47638	798.35693	1083.33740	50.15071	730.48639	1027.69373	52.01575	695.67346	1139.06250	45.99823	512.87500	1060.00903	38.50697	607.49628	1021.67548	126.91919	577.13330	1107.47522	106.45259	621.24518	999.27325	476.15323	621.48334	1102.16248	487.22986	664.09467	1087.03003	868.56403	693.40149	917.47211	1716.36011	749.87762	833.46228	1557.18677	752.44922	993.38007	1553.90186	737.34833	914.98126	1392.99927	620.39117	920.21094	1476.77173	716.36755	810.77362	1095.87439	722.01453	1025.88525	1092.64844	767.94513	915.70496	1236.70056	734.71808	811.20404	962.14154	731.29352	1030.74951	972.85229	562.97308	860.49445	1001.30591	564.36316	981.43030	1005.10992	551.63562	923.21942	1263.61951	563.93787	924.89227	1139.06445	570.37537	926.64984	1080.71118	566.63275	921.81525	1034.10986	552.83264	921.85248	995.42194	525.01105	920.16473	890.55676	
1436	7.175	714.77832	772.53558	1040.70544	681.67230	709.32251	1010.70703	633.12091	749.59473	1045.67664	530.01715	606.05426	1177.17004	593.10687	557.73431	1188.01782	708.21161	750.30267	1406.06921	601.05969	725.21271	1401.96899	654.84320	719.61908	1436.17920	723.78265	1059.71497	1049.96277	687.06805	1126.76184	1017.81659	643.95178	1080.03467	1061.07239	554.50940	1238.78113	1181.97327	624.36926	1284.75903	1188.34839	714.82208	1073.81030	1403.98645	663.96069	1109.26624	1432.95374	601.85669	1095.41260	1388.75220	826.42041	732.33417	51.19099	749.13800	788.55542	35.63585	714.27777	668.38312	43.24686	542.05902	773.94348	40.21314	632.92523	802.52289	111.40340	602.99908	712.54626	103.04240	638.26031	832.00079	471.40781	641.55292	727.79303	480.37851	666.01428	743.43225	878.38336	798.36395	1083.33777	50.15266	730.49084	1027.69617	52.02367	695.71161	1139.05823	45.97258	512.87274	1060.01367	38.48132	607.46423	1021.68091	126.92186	577.11682	1107.47827	106.45127	620.90497	999.21796	476.13101	621.35944	1102.10986	487.19431	664.06268	1086.94775	868.47198	692.78644	917.42902	1716.25537	749.61865	833.44299	1557.20972	752.14539	993.29236	1553.97742	737.11493	914.85413	1392.96643	620.14294	920.10229	1476.67920	716.30725	810.58252	1095.77478	721.89484	1025.81628	1092.57947	767.77954	915.56311	1236.67432	734.60278	811.10461	962.08472	731.25049	1030.64795	972.83319	562.87927	860.37537	1001.19897	564.24042	981.26392	1004.98560	551.50342	923.14246	1263.50330	563.78064	924.76709	1139.01599	570.30255	926.56873	1080.58545	566.51880	921.66608	1034.01343	552.76025	921.74188	995.31714	525.00281	920.05499	890.42133	
